<?xml version="1.0" encoding="UTF-8"?>
<svg xmlns="http://www.w3.org/2000/svg" xmlns:xlink="http://www.w3.org/1999/xlink" width="340" height="283" viewBox="0 0 340 283">
<defs>
<g>
<g id="glyph-0-0">
<path d="M 5.40625 -2.449219 L 2.367188 -2.449219 L 2.007812 -1.613281 C 1.886719 -1.332031 1.828125 -1.101562 1.828125 -0.921875 C 1.828125 -0.679688 1.925781 -0.5 2.121094 -0.386719 C 2.234375 -0.320312 2.515625 -0.269531 2.964844 -0.234375 L 2.964844 0 L 0.101562 0 L 0.101562 -0.234375 C 0.410156 -0.28125 0.664062 -0.410156 0.863281 -0.617188 C 1.0625 -0.828125 1.308594 -1.261719 1.601562 -1.917969 L 4.679688 -8.785156 L 4.796875 -8.785156 L 7.902344 -1.726562 C 8.199219 -1.058594 8.441406 -0.636719 8.632812 -0.464844 C 8.777344 -0.332031 8.980469 -0.257812 9.242188 -0.234375 L 9.242188 0 L 5.078125 0 L 5.078125 -0.234375 L 5.25 -0.234375 C 5.582031 -0.234375 5.820312 -0.28125 5.953125 -0.375 C 6.046875 -0.441406 6.09375 -0.539062 6.09375 -0.667969 C 6.09375 -0.742188 6.082031 -0.820312 6.054688 -0.902344 C 6.046875 -0.9375 5.984375 -1.097656 5.867188 -1.378906 L 5.40625 -2.449219 M 5.191406 -2.921875 L 3.910156 -5.882812 L 2.589844 -2.921875 Z M 5.191406 -2.921875 "/>
</g>
<g id="glyph-0-1">
<path d="M 0.304688 -8.609375 L 4.75 -8.609375 L 4.75 -8.371094 L 4.527344 -8.371094 C 4.191406 -8.371094 3.960938 -8.335938 3.835938 -8.269531 C 3.710938 -8.199219 3.625 -8.101562 3.570312 -7.980469 C 3.519531 -7.855469 3.492188 -7.550781 3.492188 -7.058594 L 3.492188 -2.84375 C 3.492188 -2.074219 3.550781 -1.5625 3.664062 -1.3125 C 3.78125 -1.0625 3.972656 -0.855469 4.242188 -0.691406 C 4.507812 -0.527344 4.84375 -0.445312 5.25 -0.445312 C 5.714844 -0.445312 6.113281 -0.550781 6.441406 -0.757812 C 6.769531 -0.96875 7.011719 -1.257812 7.175781 -1.625 C 7.339844 -1.992188 7.421875 -2.632812 7.421875 -3.546875 L 7.421875 -7.058594 C 7.421875 -7.445312 7.378906 -7.71875 7.300781 -7.882812 C 7.21875 -8.046875 7.117188 -8.164062 6.996094 -8.226562 C 6.804688 -8.324219 6.535156 -8.371094 6.1875 -8.371094 L 6.1875 -8.609375 L 9.164062 -8.609375 L 9.164062 -8.371094 L 8.988281 -8.371094 C 8.746094 -8.371094 8.546875 -8.324219 8.386719 -8.226562 C 8.222656 -8.128906 8.109375 -7.984375 8.035156 -7.789062 C 7.980469 -7.652344 7.953125 -7.410156 7.953125 -7.058594 L 7.953125 -3.789062 C 7.953125 -2.777344 7.886719 -2.046875 7.753906 -1.601562 C 7.621094 -1.152344 7.296875 -0.738281 6.78125 -0.363281 C 6.261719 0.015625 5.558594 0.203125 4.664062 0.203125 C 3.921875 0.203125 3.34375 0.105469 2.9375 -0.09375 C 2.382812 -0.367188 1.992188 -0.714844 1.765625 -1.136719 C 1.535156 -1.558594 1.421875 -2.128906 1.421875 -2.84375 L 1.421875 -7.058594 C 1.421875 -7.554688 1.394531 -7.863281 1.339844 -7.980469 C 1.285156 -8.101562 1.1875 -8.199219 1.054688 -8.269531 C 0.917969 -8.34375 0.667969 -8.375 0.304688 -8.371094 Z M 0.304688 -8.609375 "/>
</g>
<g id="glyph-0-2">
<path d="M 8.675781 -8.804688 L 8.675781 -5.820312 L 8.429688 -5.820312 C 8.242188 -6.597656 7.898438 -7.195312 7.390625 -7.609375 C 6.882812 -8.027344 6.304688 -8.234375 5.664062 -8.234375 C 5.125 -8.234375 4.632812 -8.078125 4.183594 -7.769531 C 3.734375 -7.460938 3.40625 -7.054688 3.199219 -6.558594 C 2.933594 -5.917969 2.800781 -5.207031 2.800781 -4.425781 C 2.800781 -3.652344 2.898438 -2.953125 3.089844 -2.320312 C 3.285156 -1.6875 3.589844 -1.210938 4.003906 -0.886719 C 4.421875 -0.5625 4.957031 -0.398438 5.617188 -0.398438 C 6.160156 -0.398438 6.65625 -0.519531 7.105469 -0.753906 C 7.558594 -0.992188 8.03125 -1.402344 8.53125 -1.980469 L 8.53125 -1.238281 C 8.046875 -0.734375 7.546875 -0.371094 7.023438 -0.144531 C 6.5 0.0820312 5.890625 0.195312 5.191406 0.195312 C 4.273438 0.195312 3.457031 0.0117188 2.746094 -0.355469 C 2.03125 -0.722656 1.480469 -1.253906 1.09375 -1.941406 C 0.707031 -2.632812 0.515625 -3.367188 0.515625 -4.144531 C 0.515625 -4.964844 0.730469 -5.746094 1.160156 -6.480469 C 1.589844 -7.21875 2.167969 -7.789062 2.898438 -8.195312 C 3.628906 -8.601562 4.402344 -8.804688 5.222656 -8.804688 C 5.828125 -8.804688 6.46875 -8.671875 7.140625 -8.410156 C 7.53125 -8.257812 7.777344 -8.183594 7.882812 -8.183594 C 8.019531 -8.183594 8.136719 -8.230469 8.234375 -8.332031 C 8.335938 -8.429688 8.398438 -8.589844 8.429688 -8.804688 Z M 8.675781 -8.804688 "/>
</g>
<g id="glyph-1-0">
<path d="M -8.113281 -3.574219 L -4.578125 -3.574219 L -4.578125 -3.820312 C -4.578125 -4.203125 -4.632812 -4.511719 -4.75 -4.753906 C -4.863281 -4.996094 -5.054688 -5.199219 -5.324219 -5.367188 C -5.597656 -5.535156 -5.960938 -5.644531 -6.421875 -5.695312 L -6.421875 -5.914062 L -2.101562 -5.914062 L -2.101562 -5.695312 C -2.917969 -5.613281 -3.457031 -5.394531 -3.714844 -5.035156 C -3.976562 -4.679688 -4.105469 -4.273438 -4.105469 -3.820312 L -4.105469 -3.574219 L -1.472656 -3.574219 C -1.03125 -3.574219 -0.757812 -3.597656 -0.648438 -3.648438 C -0.539062 -3.695312 -0.441406 -3.789062 -0.359375 -3.933594 C -0.277344 -4.074219 -0.234375 -4.265625 -0.234375 -4.507812 L -0.234375 -4.792969 L 0 -4.792969 L 0 -0.292969 L -0.234375 -0.292969 L -0.234375 -0.578125 C -0.234375 -0.828125 -0.277344 -1.027344 -0.367188 -1.179688 C -0.425781 -1.289062 -0.527344 -1.375 -0.671875 -1.433594 C -0.773438 -1.480469 -1.039062 -1.503906 -1.472656 -1.503906 L -7.132812 -1.503906 C -7.574219 -1.503906 -7.851562 -1.480469 -7.960938 -1.433594 C -8.070312 -1.386719 -8.167969 -1.292969 -8.25 -1.152344 C -8.332031 -1.011719 -8.371094 -0.820312 -8.371094 -0.578125 L -8.371094 -0.292969 L -8.609375 -0.292969 L -8.609375 -7.554688 L -6.136719 -7.554688 L -6.136719 -7.292969 C -6.71875 -7.234375 -7.148438 -7.082031 -7.425781 -6.839844 C -7.707031 -6.597656 -7.902344 -6.242188 -8.015625 -5.78125 C -8.082031 -5.527344 -8.113281 -5.058594 -8.113281 -4.375 Z M -8.113281 -3.574219 "/>
</g>
<g id="glyph-1-1">
<path d="M -5.933594 -2.902344 L -4.589844 -2.902344 C -5.203125 -3.292969 -5.609375 -3.640625 -5.8125 -3.9375 C -6.011719 -4.230469 -6.113281 -4.515625 -6.113281 -4.792969 C -6.113281 -5.03125 -6.039062 -5.21875 -5.894531 -5.359375 C -5.746094 -5.503906 -5.542969 -5.574219 -5.273438 -5.574219 C -4.992188 -5.574219 -4.769531 -5.503906 -4.613281 -5.367188 C -4.457031 -5.230469 -4.378906 -5.0625 -4.378906 -4.867188 C -4.378906 -4.644531 -4.453125 -4.449219 -4.59375 -4.285156 C -4.738281 -4.121094 -4.820312 -4.023438 -4.835938 -3.992188 C -4.863281 -3.949219 -4.875 -3.902344 -4.875 -3.847656 C -4.875 -3.722656 -4.828125 -3.609375 -4.734375 -3.496094 C -4.589844 -3.324219 -4.386719 -3.191406 -4.121094 -3.105469 C -3.710938 -2.96875 -3.257812 -2.902344 -2.761719 -2.902344 L -1.394531 -2.902344 L -1.039062 -2.90625 C -0.800781 -2.90625 -0.644531 -2.921875 -0.578125 -2.953125 C -0.464844 -3.003906 -0.378906 -3.078125 -0.328125 -3.175781 C -0.273438 -3.277344 -0.242188 -3.445312 -0.226562 -3.679688 L 0 -3.679688 L 0 -0.476562 L -0.226562 -0.476562 C -0.25 -0.734375 -0.320312 -0.910156 -0.441406 -1 C -0.5625 -1.089844 -0.878906 -1.136719 -1.398438 -1.136719 L -4.679688 -1.136719 C -5.015625 -1.136719 -5.234375 -1.121094 -5.324219 -1.085938 C -5.445312 -1.042969 -5.53125 -0.980469 -5.585938 -0.902344 C -5.640625 -0.820312 -5.679688 -0.679688 -5.699219 -0.476562 L -5.933594 -0.476562 Z M -5.933594 -2.902344 "/>
</g>
<g id="glyph-1-2">
<path d="M -3.179688 -5.464844 L -3.179688 -2.210938 C -2.394531 -2.246094 -1.769531 -2.457031 -1.3125 -2.835938 C -0.960938 -3.128906 -0.785156 -3.480469 -0.785156 -3.890625 C -0.785156 -4.144531 -0.859375 -4.375 -1 -4.582031 C -1.140625 -4.789062 -1.394531 -5.011719 -1.765625 -5.25 L -1.625 -5.464844 C -0.96875 -5.144531 -0.503906 -4.789062 -0.230469 -4.398438 C 0.0429688 -4.007812 0.179688 -3.558594 0.179688 -3.046875 C 0.179688 -2.167969 -0.160156 -1.5 -0.835938 -1.046875 C -1.382812 -0.683594 -2.0625 -0.5 -2.867188 -0.5 C -3.859375 -0.5 -4.648438 -0.769531 -5.234375 -1.304688 C -5.820312 -1.839844 -6.113281 -2.46875 -6.113281 -3.1875 C -6.113281 -3.789062 -5.867188 -4.308594 -5.375 -4.75 C -4.878906 -5.195312 -4.148438 -5.429688 -3.179688 -5.464844 M -3.605469 -3.902344 C -4.285156 -3.902344 -4.753906 -3.867188 -5.007812 -3.792969 C -5.261719 -3.71875 -5.453125 -3.601562 -5.585938 -3.445312 C -5.664062 -3.359375 -5.699219 -3.238281 -5.699219 -3.089844 C -5.699219 -2.871094 -5.59375 -2.691406 -5.375 -2.550781 C -5 -2.300781 -4.484375 -2.175781 -3.828125 -2.175781 L -3.605469 -2.175781 Z M -3.605469 -3.902344 "/>
</g>
<g id="glyph-1-3">
<path d="M -0.621094 -4.425781 C -0.351562 -4.167969 -0.160156 -3.925781 -0.0507812 -3.699219 C 0.101562 -3.40625 0.179688 -3.09375 0.179688 -2.773438 C 0.179688 -2.027344 -0.15625 -1.441406 -0.820312 -1.007812 C -1.347656 -0.667969 -1.980469 -0.496094 -2.71875 -0.496094 C -3.332031 -0.496094 -3.90625 -0.625 -4.445312 -0.886719 C -4.984375 -1.144531 -5.398438 -1.503906 -5.683594 -1.957031 C -5.96875 -2.414062 -6.113281 -2.894531 -6.113281 -3.402344 C -6.113281 -3.742188 -6.054688 -4.042969 -5.941406 -4.308594 C -5.828125 -4.570312 -5.652344 -4.796875 -5.421875 -4.988281 L -6.113281 -5.984375 L -6.113281 -6.203125 L 1.574219 -6.203125 C 1.964844 -6.203125 2.207031 -6.234375 2.304688 -6.304688 C 2.460938 -6.414062 2.542969 -6.636719 2.546875 -6.96875 L 2.78125 -6.96875 L 2.78125 -3.542969 L 2.546875 -3.542969 C 2.546875 -3.804688 2.515625 -3.996094 2.457031 -4.113281 C 2.398438 -4.230469 2.320312 -4.3125 2.222656 -4.359375 C 2.125 -4.402344 1.925781 -4.425781 1.625 -4.425781 L -0.621094 -4.425781 M -1.199219 -4.425781 L -3.644531 -4.425781 C -4.324219 -4.425781 -4.777344 -4.386719 -4.996094 -4.3125 C -5.214844 -4.238281 -5.40625 -4.101562 -5.566406 -3.902344 C -5.648438 -3.800781 -5.6875 -3.671875 -5.6875 -3.515625 C -5.6875 -3.195312 -5.546875 -2.945312 -5.261719 -2.769531 C -4.828125 -2.488281 -4.015625 -2.347656 -2.832031 -2.347656 C -1.921875 -2.347656 -1.28125 -2.46875 -0.914062 -2.710938 C -0.664062 -2.875 -0.539062 -3.089844 -0.539062 -3.351562 C -0.539062 -3.503906 -0.59375 -3.675781 -0.699219 -3.867188 C -0.804688 -4.0625 -0.972656 -4.246094 -1.199219 -4.425781 Z M -1.199219 -4.425781 "/>
</g>
<g id="glyph-1-4">
<path d="M -5.933594 -6.171875 L -1.289062 -6.171875 C -0.835938 -6.167969 -0.554688 -6.210938 -0.441406 -6.296875 C -0.328125 -6.382812 -0.257812 -6.554688 -0.226562 -6.8125 L 0 -6.8125 L 0 -4.390625 L -0.792969 -4.390625 C -0.453125 -4.109375 -0.207031 -3.824219 -0.0546875 -3.542969 C 0.101562 -3.257812 0.179688 -2.941406 0.179688 -2.589844 C 0.179688 -2.253906 0.0742188 -1.957031 -0.128906 -1.699219 C -0.335938 -1.4375 -0.574219 -1.261719 -0.851562 -1.175781 C -1.125 -1.085938 -1.605469 -1.039062 -2.292969 -1.042969 L -4.648438 -1.042969 C -5.09375 -1.042969 -5.375 -1 -5.484375 -0.917969 C -5.59375 -0.835938 -5.667969 -0.664062 -5.699219 -0.398438 L -5.933594 -0.398438 L -5.933594 -2.820312 L -1.878906 -2.820312 C -1.457031 -2.816406 -1.183594 -2.839844 -1.058594 -2.878906 C -0.9375 -2.917969 -0.84375 -2.980469 -0.78125 -3.070312 C -0.71875 -3.15625 -0.683594 -3.257812 -0.683594 -3.371094 C -0.683594 -3.523438 -0.726562 -3.660156 -0.804688 -3.78125 C -0.917969 -3.953125 -1.136719 -4.15625 -1.472656 -4.390625 L -4.648438 -4.390625 C -5.09375 -4.390625 -5.375 -4.351562 -5.484375 -4.269531 C -5.59375 -4.1875 -5.667969 -4.015625 -5.699219 -3.75 L -5.933594 -3.75 Z M -5.933594 -6.171875 "/>
</g>
<g id="glyph-1-5">
<path d="M -5.933594 -2.863281 L -5.167969 -2.863281 C -5.496094 -3.167969 -5.738281 -3.460938 -5.886719 -3.738281 C -6.039062 -4.019531 -6.113281 -4.320312 -6.113281 -4.640625 C -6.113281 -5.023438 -6.007812 -5.34375 -5.792969 -5.597656 C -5.578125 -5.851562 -5.3125 -6.023438 -4.996094 -6.105469 C -4.753906 -6.175781 -4.289062 -6.207031 -3.605469 -6.207031 L -1.292969 -6.207031 C -0.835938 -6.207031 -0.554688 -6.25 -0.441406 -6.332031 C -0.328125 -6.414062 -0.257812 -6.585938 -0.226562 -6.847656 L 0 -6.847656 L 0 -3.847656 L -0.226562 -3.847656 C -0.257812 -4.070312 -0.351562 -4.230469 -0.507812 -4.328125 C -0.613281 -4.398438 -0.875 -4.429688 -1.292969 -4.429688 L -3.933594 -4.429688 C -4.421875 -4.429688 -4.730469 -4.410156 -4.855469 -4.375 C -4.984375 -4.335938 -5.082031 -4.269531 -5.152344 -4.179688 C -5.222656 -4.089844 -5.253906 -3.988281 -5.257812 -3.878906 C -5.253906 -3.515625 -4.996094 -3.175781 -4.476562 -2.863281 L -1.292969 -2.863281 C -0.851562 -2.863281 -0.570312 -2.902344 -0.449219 -2.988281 C -0.332031 -3.070312 -0.257812 -3.222656 -0.226562 -3.445312 L 0 -3.445312 L 0 -0.445312 L -0.226562 -0.445312 C -0.253906 -0.695312 -0.335938 -0.871094 -0.46875 -0.976562 C -0.5625 -1.050781 -0.835938 -1.085938 -1.296875 -1.085938 L -4.648438 -1.085938 C -5.09375 -1.085938 -5.375 -1.042969 -5.484375 -0.960938 C -5.59375 -0.878906 -5.667969 -0.707031 -5.699219 -0.445312 L -5.933594 -0.445312 Z M -5.933594 -2.863281 "/>
</g>
<g id="glyph-1-6">
<path d="M -1.53125 -5.28125 L -1.378906 -5.476562 C -0.851562 -5.199219 -0.460938 -4.851562 -0.207031 -4.433594 C 0.0507812 -4.015625 0.179688 -3.574219 0.179688 -3.105469 C 0.179688 -2.3125 -0.121094 -1.679688 -0.71875 -1.207031 C -1.3125 -0.730469 -2.03125 -0.496094 -2.867188 -0.496094 C -3.675781 -0.496094 -4.386719 -0.710938 -5 -1.144531 C -5.742188 -1.664062 -6.113281 -2.378906 -6.113281 -3.292969 C -6.113281 -3.90625 -5.957031 -4.394531 -5.648438 -4.757812 C -5.339844 -5.121094 -4.996094 -5.300781 -4.613281 -5.300781 C -4.375 -5.300781 -4.179688 -5.226562 -4.039062 -5.082031 C -3.894531 -4.933594 -3.820312 -4.742188 -3.820312 -4.507812 C -3.820312 -4.257812 -3.902344 -4.050781 -4.070312 -3.886719 C -4.234375 -3.726562 -4.527344 -3.625 -4.953125 -3.585938 C -5.21875 -3.5625 -5.402344 -3.5 -5.507812 -3.402344 C -5.617188 -3.304688 -5.667969 -3.191406 -5.667969 -3.058594 C -5.667969 -2.855469 -5.5625 -2.683594 -5.34375 -2.539062 C -5.019531 -2.320312 -4.519531 -2.210938 -3.847656 -2.210938 C -3.289062 -2.210938 -2.753906 -2.296875 -2.242188 -2.476562 C -1.734375 -2.652344 -1.355469 -2.898438 -1.105469 -3.207031 C -0.921875 -3.4375 -0.832031 -3.714844 -0.832031 -4.03125 C -0.832031 -4.238281 -0.878906 -4.433594 -0.976562 -4.621094 C -1.074219 -4.808594 -1.257812 -5.027344 -1.53125 -5.28125 Z M -1.53125 -5.28125 "/>
</g>
<g id="glyph-1-7">
<path d="M 0.242188 -3.160156 L -4.15625 -1.246094 C -4.820312 -0.957031 -5.230469 -0.742188 -5.382812 -0.605469 C -5.535156 -0.46875 -5.640625 -0.300781 -5.699219 -0.109375 L -5.933594 -0.109375 L -5.933594 -3.261719 L -5.699219 -3.261719 C -5.691406 -3.054688 -5.652344 -2.910156 -5.578125 -2.824219 C -5.507812 -2.738281 -5.421875 -2.699219 -5.320312 -2.699219 C -5.160156 -2.699219 -4.839844 -2.804688 -4.367188 -3.015625 L -2.042969 -4.03125 L -3.839844 -4.722656 C -4.480469 -4.972656 -4.921875 -5.097656 -5.171875 -5.097656 C -5.328125 -5.097656 -5.453125 -5.046875 -5.546875 -4.941406 C -5.640625 -4.839844 -5.691406 -4.65625 -5.699219 -4.390625 L -5.933594 -4.390625 L -5.933594 -6.378906 L -5.699219 -6.378906 C -5.679688 -6.183594 -5.605469 -6.027344 -5.476562 -5.902344 C -5.347656 -5.78125 -4.90625 -5.574219 -4.15625 -5.289062 L 0.242188 -3.59375 C 1.339844 -3.164062 2.019531 -2.847656 2.273438 -2.640625 C 2.628906 -2.347656 2.804688 -1.984375 2.804688 -1.542969 C 2.804688 -1.191406 2.707031 -0.90625 2.503906 -0.6875 C 2.304688 -0.472656 2.0625 -0.363281 1.777344 -0.363281 C 1.53125 -0.363281 1.328125 -0.4375 1.167969 -0.585938 C 1.007812 -0.738281 0.925781 -0.921875 0.925781 -1.140625 C 0.925781 -1.355469 0.996094 -1.523438 1.128906 -1.652344 C 1.265625 -1.78125 1.476562 -1.847656 1.757812 -1.851562 C 1.917969 -1.859375 2.023438 -1.875 2.070312 -1.910156 C 2.117188 -1.945312 2.140625 -1.992188 2.140625 -2.054688 C 2.140625 -2.15625 2.078125 -2.265625 1.957031 -2.378906 C 1.777344 -2.550781 1.371094 -2.75 0.738281 -2.976562 Z M 0.242188 -3.160156 "/>
</g>
</g>
<clipPath id="clip-0">
<path clip-rule="nonzero" d="M 21.632812 5.480469 L 334.519531 5.480469 L 334.519531 261.367188 L 21.632812 261.367188 Z M 21.632812 5.480469 "/>
</clipPath>
<clipPath id="clip-1">
<path clip-rule="nonzero" d="M 38 5.480469 L 43 5.480469 L 43 261.367188 L 38 261.367188 Z M 38 5.480469 "/>
</clipPath>
</defs>
<rect x="-34" y="-28.3" width="408" height="339.6" fill="rgb(100%, 100%, 100%)" fill-opacity="1"/>
<rect x="-34" y="-28.3" width="408" height="339.6" fill="rgb(100%, 100%, 100%)" fill-opacity="1"/>
<path fill="none" stroke-width="1.066978" stroke-linecap="round" stroke-linejoin="round" stroke="rgb(100%, 100%, 100%)" stroke-opacity="1" stroke-miterlimit="10" d="M 0 283 L 340 283 L 340 0 L 0 0 Z M 0 283 "/>
<g clip-path="url(#clip-0)">
<path fill-rule="nonzero" fill="rgb(100%, 100%, 100%)" fill-opacity="1" d="M 21.632812 261.367188 L 334.519531 261.367188 L 334.519531 5.480469 L 21.632812 5.480469 Z M 21.632812 261.367188 "/>
</g>
<path fill="none" stroke-width="1.066978" stroke-linecap="butt" stroke-linejoin="miter" stroke="rgb(74.509804%, 74.509804%, 74.509804%)" stroke-opacity="1" stroke-miterlimit="10" d="M 35.855469 249.738281 L 45.335938 249.738281 Z M 35.855469 249.738281 "/>
<path fill="none" stroke-width="1.066978" stroke-linecap="butt" stroke-linejoin="miter" stroke="rgb(74.509804%, 74.509804%, 74.509804%)" stroke-opacity="1" stroke-miterlimit="10" d="M 45.335938 249.738281 L 54.816406 249.738281 Z M 45.335938 249.738281 "/>
<path fill="none" stroke-width="1.066978" stroke-linecap="butt" stroke-linejoin="miter" stroke="rgb(74.509804%, 74.509804%, 74.509804%)" stroke-opacity="1" stroke-miterlimit="10" d="M 54.816406 249.738281 L 64.296875 249.738281 Z M 54.816406 249.738281 "/>
<path fill="none" stroke-width="1.066978" stroke-linecap="butt" stroke-linejoin="miter" stroke="rgb(74.509804%, 74.509804%, 74.509804%)" stroke-opacity="1" stroke-miterlimit="10" d="M 64.300781 249.738281 L 73.78125 249.738281 Z M 64.300781 249.738281 "/>
<path fill="none" stroke-width="1.066978" stroke-linecap="butt" stroke-linejoin="miter" stroke="rgb(74.509804%, 74.509804%, 74.509804%)" stroke-opacity="1" stroke-miterlimit="10" d="M 73.78125 249.738281 L 83.261719 249.738281 Z M 73.78125 249.738281 "/>
<path fill="none" stroke-width="1.066978" stroke-linecap="butt" stroke-linejoin="miter" stroke="rgb(74.509804%, 74.509804%, 74.509804%)" stroke-opacity="1" stroke-miterlimit="10" d="M 83.261719 249.738281 L 92.742188 249.738281 Z M 83.261719 249.738281 "/>
<path fill="none" stroke-width="1.066978" stroke-linecap="butt" stroke-linejoin="miter" stroke="rgb(74.509804%, 74.509804%, 74.509804%)" stroke-opacity="1" stroke-miterlimit="10" d="M 92.742188 249.738281 L 102.222656 249.738281 Z M 92.742188 249.738281 "/>
<path fill="none" stroke-width="1.066978" stroke-linecap="butt" stroke-linejoin="miter" stroke="rgb(74.509804%, 74.509804%, 74.509804%)" stroke-opacity="1" stroke-miterlimit="10" d="M 102.226562 249.738281 L 111.707031 249.738281 Z M 102.226562 249.738281 "/>
<path fill-rule="nonzero" fill="rgb(82.745098%, 82.745098%, 82.745098%)" fill-opacity="1" stroke-width="1.066978" stroke-linecap="butt" stroke-linejoin="miter" stroke="rgb(74.509804%, 74.509804%, 74.509804%)" stroke-opacity="1" stroke-miterlimit="10" d="M 111.707031 249.738281 L 121.1875 249.738281 L 121.1875 233.121094 L 111.707031 233.121094 Z M 111.707031 249.738281 "/>
<path fill-rule="nonzero" fill="rgb(82.745098%, 82.745098%, 82.745098%)" fill-opacity="1" stroke-width="1.066978" stroke-linecap="butt" stroke-linejoin="miter" stroke="rgb(74.509804%, 74.509804%, 74.509804%)" stroke-opacity="1" stroke-miterlimit="10" d="M 121.1875 249.738281 L 130.667969 249.738281 L 130.667969 216.507812 L 121.1875 216.507812 Z M 121.1875 249.738281 "/>
<path fill="none" stroke-width="1.066978" stroke-linecap="butt" stroke-linejoin="miter" stroke="rgb(74.509804%, 74.509804%, 74.509804%)" stroke-opacity="1" stroke-miterlimit="10" d="M 130.667969 249.738281 L 140.148438 249.738281 Z M 130.667969 249.738281 "/>
<path fill-rule="nonzero" fill="rgb(82.745098%, 82.745098%, 82.745098%)" fill-opacity="1" stroke-width="1.066978" stroke-linecap="butt" stroke-linejoin="miter" stroke="rgb(74.509804%, 74.509804%, 74.509804%)" stroke-opacity="1" stroke-miterlimit="10" d="M 140.152344 249.738281 L 149.632812 249.738281 L 149.632812 199.890625 L 140.152344 199.890625 Z M 140.152344 249.738281 "/>
<path fill-rule="nonzero" fill="rgb(82.745098%, 82.745098%, 82.745098%)" fill-opacity="1" stroke-width="1.066978" stroke-linecap="butt" stroke-linejoin="miter" stroke="rgb(74.509804%, 74.509804%, 74.509804%)" stroke-opacity="1" stroke-miterlimit="10" d="M 149.632812 249.738281 L 159.113281 249.738281 L 159.113281 216.507812 L 149.632812 216.507812 Z M 149.632812 249.738281 "/>
<path fill-rule="nonzero" fill="rgb(82.745098%, 82.745098%, 82.745098%)" fill-opacity="1" stroke-width="1.066978" stroke-linecap="butt" stroke-linejoin="miter" stroke="rgb(74.509804%, 74.509804%, 74.509804%)" stroke-opacity="1" stroke-miterlimit="10" d="M 159.113281 249.738281 L 168.59375 249.738281 L 168.59375 150.042969 L 159.113281 150.042969 Z M 159.113281 249.738281 "/>
<path fill-rule="nonzero" fill="rgb(82.745098%, 82.745098%, 82.745098%)" fill-opacity="1" stroke-width="1.066978" stroke-linecap="butt" stroke-linejoin="miter" stroke="rgb(74.509804%, 74.509804%, 74.509804%)" stroke-opacity="1" stroke-miterlimit="10" d="M 168.59375 249.738281 L 178.074219 249.738281 L 178.074219 199.890625 L 168.59375 199.890625 Z M 168.59375 249.738281 "/>
<path fill-rule="nonzero" fill="rgb(82.745098%, 82.745098%, 82.745098%)" fill-opacity="1" stroke-width="1.066978" stroke-linecap="butt" stroke-linejoin="miter" stroke="rgb(74.509804%, 74.509804%, 74.509804%)" stroke-opacity="1" stroke-miterlimit="10" d="M 178.078125 249.738281 L 187.558594 249.738281 L 187.558594 166.65625 L 178.078125 166.65625 Z M 178.078125 249.738281 "/>
<path fill-rule="nonzero" fill="rgb(82.745098%, 82.745098%, 82.745098%)" fill-opacity="1" stroke-width="1.066978" stroke-linecap="butt" stroke-linejoin="miter" stroke="rgb(74.509804%, 74.509804%, 74.509804%)" stroke-opacity="1" stroke-miterlimit="10" d="M 187.558594 249.738281 L 197.039062 249.738281 L 197.039062 100.191406 L 187.558594 100.191406 Z M 187.558594 249.738281 "/>
<path fill-rule="nonzero" fill="rgb(82.745098%, 82.745098%, 82.745098%)" fill-opacity="1" stroke-width="1.066978" stroke-linecap="butt" stroke-linejoin="miter" stroke="rgb(74.509804%, 74.509804%, 74.509804%)" stroke-opacity="1" stroke-miterlimit="10" d="M 197.039062 249.738281 L 206.519531 249.738281 L 206.519531 199.890625 L 197.039062 199.890625 Z M 197.039062 249.738281 "/>
<path fill-rule="nonzero" fill="rgb(82.745098%, 82.745098%, 82.745098%)" fill-opacity="1" stroke-width="1.066978" stroke-linecap="butt" stroke-linejoin="miter" stroke="rgb(74.509804%, 74.509804%, 74.509804%)" stroke-opacity="1" stroke-miterlimit="10" d="M 206.519531 249.738281 L 216 249.738281 L 216 17.113281 L 206.519531 17.113281 Z M 206.519531 249.738281 "/>
<path fill-rule="nonzero" fill="rgb(82.745098%, 82.745098%, 82.745098%)" fill-opacity="1" stroke-width="1.066978" stroke-linecap="butt" stroke-linejoin="miter" stroke="rgb(74.509804%, 74.509804%, 74.509804%)" stroke-opacity="1" stroke-miterlimit="10" d="M 216.003906 249.738281 L 225.484375 249.738281 L 225.484375 150.042969 L 216.003906 150.042969 Z M 216.003906 249.738281 "/>
<path fill-rule="nonzero" fill="rgb(82.745098%, 82.745098%, 82.745098%)" fill-opacity="1" stroke-width="1.066978" stroke-linecap="butt" stroke-linejoin="miter" stroke="rgb(74.509804%, 74.509804%, 74.509804%)" stroke-opacity="1" stroke-miterlimit="10" d="M 225.484375 249.738281 L 234.964844 249.738281 L 234.964844 83.578125 L 225.484375 83.578125 Z M 225.484375 249.738281 "/>
<path fill-rule="nonzero" fill="rgb(82.745098%, 82.745098%, 82.745098%)" fill-opacity="1" stroke-width="1.066978" stroke-linecap="butt" stroke-linejoin="miter" stroke="rgb(74.509804%, 74.509804%, 74.509804%)" stroke-opacity="1" stroke-miterlimit="10" d="M 234.964844 249.738281 L 244.445312 249.738281 L 244.445312 199.890625 L 234.964844 199.890625 Z M 234.964844 249.738281 "/>
<path fill-rule="nonzero" fill="rgb(82.745098%, 82.745098%, 82.745098%)" fill-opacity="1" stroke-width="1.066978" stroke-linecap="butt" stroke-linejoin="miter" stroke="rgb(74.509804%, 74.509804%, 74.509804%)" stroke-opacity="1" stroke-miterlimit="10" d="M 244.445312 249.738281 L 253.925781 249.738281 L 253.925781 183.273438 L 244.445312 183.273438 Z M 244.445312 249.738281 "/>
<path fill-rule="nonzero" fill="rgb(82.745098%, 82.745098%, 82.745098%)" fill-opacity="1" stroke-width="1.066978" stroke-linecap="butt" stroke-linejoin="miter" stroke="rgb(74.509804%, 74.509804%, 74.509804%)" stroke-opacity="1" stroke-miterlimit="10" d="M 253.929688 249.738281 L 263.410156 249.738281 L 263.410156 166.65625 L 253.929688 166.65625 Z M 253.929688 249.738281 "/>
<path fill-rule="nonzero" fill="rgb(82.745098%, 82.745098%, 82.745098%)" fill-opacity="1" stroke-width="1.066978" stroke-linecap="butt" stroke-linejoin="miter" stroke="rgb(74.509804%, 74.509804%, 74.509804%)" stroke-opacity="1" stroke-miterlimit="10" d="M 263.410156 249.738281 L 272.890625 249.738281 L 272.890625 150.042969 L 263.410156 150.042969 Z M 263.410156 249.738281 "/>
<path fill-rule="nonzero" fill="rgb(82.745098%, 82.745098%, 82.745098%)" fill-opacity="1" stroke-width="1.066978" stroke-linecap="butt" stroke-linejoin="miter" stroke="rgb(74.509804%, 74.509804%, 74.509804%)" stroke-opacity="1" stroke-miterlimit="10" d="M 272.890625 249.738281 L 282.371094 249.738281 L 282.371094 116.808594 L 272.890625 116.808594 Z M 272.890625 249.738281 "/>
<path fill-rule="nonzero" fill="rgb(82.745098%, 82.745098%, 82.745098%)" fill-opacity="1" stroke-width="1.066978" stroke-linecap="butt" stroke-linejoin="miter" stroke="rgb(74.509804%, 74.509804%, 74.509804%)" stroke-opacity="1" stroke-miterlimit="10" d="M 282.371094 249.738281 L 291.851562 249.738281 L 291.851562 183.273438 L 282.371094 183.273438 Z M 282.371094 249.738281 "/>
<path fill-rule="nonzero" fill="rgb(82.745098%, 82.745098%, 82.745098%)" fill-opacity="1" stroke-width="1.066978" stroke-linecap="butt" stroke-linejoin="miter" stroke="rgb(74.509804%, 74.509804%, 74.509804%)" stroke-opacity="1" stroke-miterlimit="10" d="M 291.855469 249.738281 L 301.335938 249.738281 L 301.335938 216.507812 L 291.855469 216.507812 Z M 291.855469 249.738281 "/>
<path fill-rule="nonzero" fill="rgb(82.745098%, 82.745098%, 82.745098%)" fill-opacity="1" stroke-width="1.066978" stroke-linecap="butt" stroke-linejoin="miter" stroke="rgb(74.509804%, 74.509804%, 74.509804%)" stroke-opacity="1" stroke-miterlimit="10" d="M 301.335938 249.738281 L 310.816406 249.738281 L 310.816406 216.507812 L 301.335938 216.507812 Z M 301.335938 249.738281 "/>
<path fill-rule="nonzero" fill="rgb(82.745098%, 82.745098%, 82.745098%)" fill-opacity="1" stroke-width="1.066978" stroke-linecap="butt" stroke-linejoin="miter" stroke="rgb(74.509804%, 74.509804%, 74.509804%)" stroke-opacity="1" stroke-miterlimit="10" d="M 310.816406 249.738281 L 320.296875 249.738281 L 320.296875 233.121094 L 310.816406 233.121094 Z M 310.816406 249.738281 "/>
<g clip-path="url(#clip-1)">
<path fill="none" stroke-width="3.200935" stroke-linecap="butt" stroke-linejoin="round" stroke="rgb(100%, 64.705882%, 0%)" stroke-opacity="1" stroke-miterlimit="10" d="M 40.59375 261.367188 L 40.59375 5.480469 "/>
</g>
<path fill="none" stroke-width="1.066978" stroke-linecap="square" stroke-linejoin="round" stroke="rgb(0%, 0%, 0%)" stroke-opacity="1" stroke-miterlimit="10" d="M 21.632812 261.367188 L 21.632812 5.480469 "/>
<path fill="none" stroke-width="1.066978" stroke-linecap="square" stroke-linejoin="round" stroke="rgb(0%, 0%, 0%)" stroke-opacity="1" stroke-miterlimit="10" d="M 21.632812 261.367188 L 334.519531 261.367188 "/>
<g fill="rgb(0%, 0%, 0%)" fill-opacity="1">
<use xlink:href="#glyph-0-0" x="163.996094" y="273.714844"/>
<use xlink:href="#glyph-0-1" x="173.384277" y="273.714844"/>
<use xlink:href="#glyph-0-2" x="182.772461" y="273.714844"/>
</g>
<g fill="rgb(0%, 0%, 0%)" fill-opacity="1">
<use xlink:href="#glyph-1-0" x="15.085938" y="163.027344"/>
<use xlink:href="#glyph-1-1" x="15.085938" y="155.086426"/>
<use xlink:href="#glyph-1-2" x="15.085938" y="149.316406"/>
<use xlink:href="#glyph-1-3" x="15.085938" y="143.546387"/>
<use xlink:href="#glyph-1-4" x="15.085938" y="136.316406"/>
<use xlink:href="#glyph-1-2" x="15.085938" y="129.086426"/>
<use xlink:href="#glyph-1-5" x="15.085938" y="123.316406"/>
<use xlink:href="#glyph-1-6" x="15.085938" y="116.086426"/>
<use xlink:href="#glyph-1-7" x="15.085938" y="110.316406"/>
</g>
</svg>
