<?xml version="1.0" encoding="UTF-8"?>
<svg xmlns="http://www.w3.org/2000/svg" xmlns:xlink="http://www.w3.org/1999/xlink" width="340" height="283" viewBox="0 0 340 283">
<defs>
<clipPath id="clip-0">
<path clip-rule="nonzero" d="M 5.480469 5.480469 L 334.523438 5.480469 L 334.523438 277.523438 L 5.480469 277.523438 Z M 5.480469 5.480469 "/>
</clipPath>
<clipPath id="clip-1">
<path clip-rule="nonzero" d="M 23 5.480469 L 28 5.480469 L 28 277.523438 L 23 277.523438 Z M 23 5.480469 "/>
</clipPath>
</defs>
<rect x="-34" y="-28.3" width="408" height="339.6" fill="rgb(100%, 100%, 100%)" fill-opacity="1"/>
<rect x="-34" y="-28.3" width="408" height="339.6" fill="rgb(100%, 100%, 100%)" fill-opacity="1"/>
<path fill="none" stroke-width="1.066978" stroke-linecap="round" stroke-linejoin="round" stroke="rgb(100%, 100%, 100%)" stroke-opacity="1" stroke-miterlimit="10" d="M 0 283 L 340 283 L 340 0 L 0 0 Z M 0 283 "/>
<g clip-path="url(#clip-0)">
<path fill-rule="nonzero" fill="rgb(100%, 100%, 100%)" fill-opacity="1" d="M 5.480469 277.519531 L 334.523438 277.519531 L 334.523438 5.476562 L 5.480469 5.476562 Z M 5.480469 277.519531 "/>
</g>
<path fill="none" stroke-width="1.066978" stroke-linecap="butt" stroke-linejoin="miter" stroke="rgb(74.509804%, 74.509804%, 74.509804%)" stroke-opacity="1" stroke-miterlimit="10" d="M 20.4375 265.15625 L 30.410156 265.15625 Z M 20.4375 265.15625 "/>
<path fill="none" stroke-width="1.066978" stroke-linecap="butt" stroke-linejoin="miter" stroke="rgb(74.509804%, 74.509804%, 74.509804%)" stroke-opacity="1" stroke-miterlimit="10" d="M 30.40625 265.15625 L 40.378906 265.15625 Z M 30.40625 265.15625 "/>
<path fill-rule="nonzero" fill="rgb(82.745098%, 82.745098%, 82.745098%)" fill-opacity="1" stroke-width="1.066978" stroke-linecap="butt" stroke-linejoin="miter" stroke="rgb(74.509804%, 74.509804%, 74.509804%)" stroke-opacity="1" stroke-miterlimit="10" d="M 40.378906 265.15625 L 50.351562 265.15625 L 50.351562 234.242188 L 40.378906 234.242188 Z M 40.378906 265.15625 "/>
<path fill-rule="nonzero" fill="rgb(82.745098%, 82.745098%, 82.745098%)" fill-opacity="1" stroke-width="1.066978" stroke-linecap="butt" stroke-linejoin="miter" stroke="rgb(74.509804%, 74.509804%, 74.509804%)" stroke-opacity="1" stroke-miterlimit="10" d="M 50.347656 265.15625 L 60.320312 265.15625 L 60.320312 203.328125 L 50.347656 203.328125 Z M 50.347656 265.15625 "/>
<path fill="none" stroke-width="1.066978" stroke-linecap="butt" stroke-linejoin="miter" stroke="rgb(74.509804%, 74.509804%, 74.509804%)" stroke-opacity="1" stroke-miterlimit="10" d="M 60.320312 265.15625 L 70.292969 265.15625 Z M 60.320312 265.15625 "/>
<path fill="none" stroke-width="1.066978" stroke-linecap="butt" stroke-linejoin="miter" stroke="rgb(74.509804%, 74.509804%, 74.509804%)" stroke-opacity="1" stroke-miterlimit="10" d="M 70.289062 265.15625 L 80.261719 265.15625 Z M 70.289062 265.15625 "/>
<path fill-rule="nonzero" fill="rgb(82.745098%, 82.745098%, 82.745098%)" fill-opacity="1" stroke-width="1.066978" stroke-linecap="butt" stroke-linejoin="miter" stroke="rgb(74.509804%, 74.509804%, 74.509804%)" stroke-opacity="1" stroke-miterlimit="10" d="M 80.261719 265.15625 L 90.234375 265.15625 L 90.234375 203.328125 L 80.261719 203.328125 Z M 80.261719 265.15625 "/>
<path fill-rule="nonzero" fill="rgb(82.745098%, 82.745098%, 82.745098%)" fill-opacity="1" stroke-width="1.066978" stroke-linecap="butt" stroke-linejoin="miter" stroke="rgb(74.509804%, 74.509804%, 74.509804%)" stroke-opacity="1" stroke-miterlimit="10" d="M 90.234375 265.15625 L 100.207031 265.15625 L 100.207031 234.242188 L 90.234375 234.242188 Z M 90.234375 265.15625 "/>
<path fill="none" stroke-width="1.066978" stroke-linecap="butt" stroke-linejoin="miter" stroke="rgb(74.509804%, 74.509804%, 74.509804%)" stroke-opacity="1" stroke-miterlimit="10" d="M 100.203125 265.15625 L 110.175781 265.15625 Z M 100.203125 265.15625 "/>
<path fill-rule="nonzero" fill="rgb(82.745098%, 82.745098%, 82.745098%)" fill-opacity="1" stroke-width="1.066978" stroke-linecap="butt" stroke-linejoin="miter" stroke="rgb(74.509804%, 74.509804%, 74.509804%)" stroke-opacity="1" stroke-miterlimit="10" d="M 110.175781 265.15625 L 120.148438 265.15625 L 120.148438 203.328125 L 110.175781 203.328125 Z M 110.175781 265.15625 "/>
<path fill-rule="nonzero" fill="rgb(82.745098%, 82.745098%, 82.745098%)" fill-opacity="1" stroke-width="1.066978" stroke-linecap="butt" stroke-linejoin="miter" stroke="rgb(74.509804%, 74.509804%, 74.509804%)" stroke-opacity="1" stroke-miterlimit="10" d="M 120.144531 265.15625 L 130.117188 265.15625 L 130.117188 203.328125 L 120.144531 203.328125 Z M 120.144531 265.15625 "/>
<path fill-rule="nonzero" fill="rgb(82.745098%, 82.745098%, 82.745098%)" fill-opacity="1" stroke-width="1.066978" stroke-linecap="butt" stroke-linejoin="miter" stroke="rgb(74.509804%, 74.509804%, 74.509804%)" stroke-opacity="1" stroke-miterlimit="10" d="M 130.117188 265.15625 L 140.089844 265.15625 L 140.089844 48.761719 L 130.117188 48.761719 Z M 130.117188 265.15625 "/>
<path fill-rule="nonzero" fill="rgb(82.745098%, 82.745098%, 82.745098%)" fill-opacity="1" stroke-width="1.066978" stroke-linecap="butt" stroke-linejoin="miter" stroke="rgb(74.509804%, 74.509804%, 74.509804%)" stroke-opacity="1" stroke-miterlimit="10" d="M 140.085938 265.15625 L 150.058594 265.15625 L 150.058594 172.414062 L 140.085938 172.414062 Z M 140.085938 265.15625 "/>
<path fill-rule="nonzero" fill="rgb(82.745098%, 82.745098%, 82.745098%)" fill-opacity="1" stroke-width="1.066978" stroke-linecap="butt" stroke-linejoin="miter" stroke="rgb(74.509804%, 74.509804%, 74.509804%)" stroke-opacity="1" stroke-miterlimit="10" d="M 150.058594 265.15625 L 160.03125 265.15625 L 160.03125 17.847656 L 150.058594 17.847656 Z M 150.058594 265.15625 "/>
<path fill-rule="nonzero" fill="rgb(82.745098%, 82.745098%, 82.745098%)" fill-opacity="1" stroke-width="1.066978" stroke-linecap="butt" stroke-linejoin="miter" stroke="rgb(74.509804%, 74.509804%, 74.509804%)" stroke-opacity="1" stroke-miterlimit="10" d="M 160.027344 265.15625 L 170 265.15625 L 170 17.847656 L 160.027344 17.847656 Z M 160.027344 265.15625 "/>
<path fill-rule="nonzero" fill="rgb(82.745098%, 82.745098%, 82.745098%)" fill-opacity="1" stroke-width="1.066978" stroke-linecap="butt" stroke-linejoin="miter" stroke="rgb(74.509804%, 74.509804%, 74.509804%)" stroke-opacity="1" stroke-miterlimit="10" d="M 170 265.15625 L 179.972656 265.15625 L 179.972656 48.761719 L 170 48.761719 Z M 170 265.15625 "/>
<path fill-rule="nonzero" fill="rgb(82.745098%, 82.745098%, 82.745098%)" fill-opacity="1" stroke-width="1.066978" stroke-linecap="butt" stroke-linejoin="miter" stroke="rgb(74.509804%, 74.509804%, 74.509804%)" stroke-opacity="1" stroke-miterlimit="10" d="M 179.972656 265.15625 L 189.945312 265.15625 L 189.945312 79.671875 L 179.972656 79.671875 Z M 179.972656 265.15625 "/>
<path fill-rule="nonzero" fill="rgb(82.745098%, 82.745098%, 82.745098%)" fill-opacity="1" stroke-width="1.066978" stroke-linecap="butt" stroke-linejoin="miter" stroke="rgb(74.509804%, 74.509804%, 74.509804%)" stroke-opacity="1" stroke-miterlimit="10" d="M 189.941406 265.15625 L 199.914062 265.15625 L 199.914062 110.585938 L 189.941406 110.585938 Z M 189.941406 265.15625 "/>
<path fill-rule="nonzero" fill="rgb(82.745098%, 82.745098%, 82.745098%)" fill-opacity="1" stroke-width="1.066978" stroke-linecap="butt" stroke-linejoin="miter" stroke="rgb(74.509804%, 74.509804%, 74.509804%)" stroke-opacity="1" stroke-miterlimit="10" d="M 199.914062 265.15625 L 209.886719 265.15625 L 209.886719 17.847656 L 199.914062 17.847656 Z M 199.914062 265.15625 "/>
<path fill-rule="nonzero" fill="rgb(82.745098%, 82.745098%, 82.745098%)" fill-opacity="1" stroke-width="1.066978" stroke-linecap="butt" stroke-linejoin="miter" stroke="rgb(74.509804%, 74.509804%, 74.509804%)" stroke-opacity="1" stroke-miterlimit="10" d="M 209.882812 265.15625 L 219.855469 265.15625 L 219.855469 141.5 L 209.882812 141.5 Z M 209.882812 265.15625 "/>
<path fill-rule="nonzero" fill="rgb(82.745098%, 82.745098%, 82.745098%)" fill-opacity="1" stroke-width="1.066978" stroke-linecap="butt" stroke-linejoin="miter" stroke="rgb(74.509804%, 74.509804%, 74.509804%)" stroke-opacity="1" stroke-miterlimit="10" d="M 219.855469 265.15625 L 229.828125 265.15625 L 229.828125 79.671875 L 219.855469 79.671875 Z M 219.855469 265.15625 "/>
<path fill-rule="nonzero" fill="rgb(82.745098%, 82.745098%, 82.745098%)" fill-opacity="1" stroke-width="1.066978" stroke-linecap="butt" stroke-linejoin="miter" stroke="rgb(74.509804%, 74.509804%, 74.509804%)" stroke-opacity="1" stroke-miterlimit="10" d="M 229.824219 265.15625 L 239.796875 265.15625 L 239.796875 79.671875 L 229.824219 79.671875 Z M 229.824219 265.15625 "/>
<path fill-rule="nonzero" fill="rgb(82.745098%, 82.745098%, 82.745098%)" fill-opacity="1" stroke-width="1.066978" stroke-linecap="butt" stroke-linejoin="miter" stroke="rgb(74.509804%, 74.509804%, 74.509804%)" stroke-opacity="1" stroke-miterlimit="10" d="M 239.796875 265.15625 L 249.769531 265.15625 L 249.769531 79.671875 L 239.796875 79.671875 Z M 239.796875 265.15625 "/>
<path fill-rule="nonzero" fill="rgb(82.745098%, 82.745098%, 82.745098%)" fill-opacity="1" stroke-width="1.066978" stroke-linecap="butt" stroke-linejoin="miter" stroke="rgb(74.509804%, 74.509804%, 74.509804%)" stroke-opacity="1" stroke-miterlimit="10" d="M 249.765625 265.15625 L 259.738281 265.15625 L 259.738281 110.585938 L 249.765625 110.585938 Z M 249.765625 265.15625 "/>
<path fill-rule="nonzero" fill="rgb(82.745098%, 82.745098%, 82.745098%)" fill-opacity="1" stroke-width="1.066978" stroke-linecap="butt" stroke-linejoin="miter" stroke="rgb(74.509804%, 74.509804%, 74.509804%)" stroke-opacity="1" stroke-miterlimit="10" d="M 259.738281 265.15625 L 269.710938 265.15625 L 269.710938 110.585938 L 259.738281 110.585938 Z M 259.738281 265.15625 "/>
<path fill="none" stroke-width="1.066978" stroke-linecap="butt" stroke-linejoin="miter" stroke="rgb(74.509804%, 74.509804%, 74.509804%)" stroke-opacity="1" stroke-miterlimit="10" d="M 269.710938 265.15625 L 279.683594 265.15625 Z M 269.710938 265.15625 "/>
<path fill-rule="nonzero" fill="rgb(82.745098%, 82.745098%, 82.745098%)" fill-opacity="1" stroke-width="1.066978" stroke-linecap="butt" stroke-linejoin="miter" stroke="rgb(74.509804%, 74.509804%, 74.509804%)" stroke-opacity="1" stroke-miterlimit="10" d="M 279.679688 265.15625 L 289.652344 265.15625 L 289.652344 234.242188 L 279.679688 234.242188 Z M 279.679688 265.15625 "/>
<path fill-rule="nonzero" fill="rgb(82.745098%, 82.745098%, 82.745098%)" fill-opacity="1" stroke-width="1.066978" stroke-linecap="butt" stroke-linejoin="miter" stroke="rgb(74.509804%, 74.509804%, 74.509804%)" stroke-opacity="1" stroke-miterlimit="10" d="M 289.652344 265.15625 L 299.625 265.15625 L 299.625 234.242188 L 289.652344 234.242188 Z M 289.652344 265.15625 "/>
<path fill-rule="nonzero" fill="rgb(82.745098%, 82.745098%, 82.745098%)" fill-opacity="1" stroke-width="1.066978" stroke-linecap="butt" stroke-linejoin="miter" stroke="rgb(74.509804%, 74.509804%, 74.509804%)" stroke-opacity="1" stroke-miterlimit="10" d="M 299.621094 265.15625 L 309.59375 265.15625 L 309.59375 234.242188 L 299.621094 234.242188 Z M 299.621094 265.15625 "/>
<path fill-rule="nonzero" fill="rgb(82.745098%, 82.745098%, 82.745098%)" fill-opacity="1" stroke-width="1.066978" stroke-linecap="butt" stroke-linejoin="miter" stroke="rgb(74.509804%, 74.509804%, 74.509804%)" stroke-opacity="1" stroke-miterlimit="10" d="M 309.59375 265.15625 L 319.566406 265.15625 L 319.566406 203.328125 L 309.59375 203.328125 Z M 309.59375 265.15625 "/>
<g clip-path="url(#clip-1)">
<path fill="none" stroke-width="3.200935" stroke-linecap="butt" stroke-linejoin="round" stroke="rgb(0%, 0%, 100%)" stroke-opacity="1" stroke-miterlimit="10" d="M 25.421875 277.519531 L 25.421875 5.480469 "/>
</g>
<path fill="none" stroke-width="1.066978" stroke-linecap="square" stroke-linejoin="round" stroke="rgb(0%, 0%, 0%)" stroke-opacity="1" stroke-miterlimit="10" d="M 5.480469 277.519531 L 5.480469 5.480469 "/>
<path fill="none" stroke-width="1.066978" stroke-linecap="square" stroke-linejoin="round" stroke="rgb(0%, 0%, 0%)" stroke-opacity="1" stroke-miterlimit="10" d="M 5.480469 277.519531 L 334.519531 277.519531 "/>
</svg>
